<svg width="83" height="32" viewBox="0 0 83 32" fill="none" xmlns="http://www.w3.org/2000/svg">
<path d="M5.264 24.664C4.77867 25.1493 4.19067 25.392 3.5 25.392C2.80933 25.392 2.212 25.1493 1.708 24.664C1.22267 24.16 0.98 23.5627 0.98 22.872C0.98 22.1813 1.22267 21.5933 1.708 21.108C2.212 20.604 2.80933 20.352 3.5 20.352C4.19067 20.352 4.77867 20.604 5.264 21.108C5.768 21.5933 6.02 22.1813 6.02 22.872C6.02 23.5627 5.768 24.16 5.264 24.664Z" fill="#3672CC"/>
<path d="M28.544 19.56C28.544 20.4773 28.3413 21.4587 27.936 22.504C27.5307 23.528 26.88 24.4773 25.984 25.352C25.088 26.2267 23.936 26.9413 22.528 27.496C21.12 28.0507 19.584 28.328 17.92 28.328C16.256 28.328 14.7627 28.0613 13.44 27.528C10.9653 26.5467 9.35467 24.8293 8.608 22.376C8.416 21.7147 8.32 21.096 8.32 20.52C8.32 18.664 8.88533 16.9253 10.016 15.304L10.304 15.528C9.6 16.7867 9.248 18.0027 9.248 19.176C9.248 20.6267 9.61067 21.9067 10.336 23.016C11.0613 24.1253 12.032 24.9893 13.248 25.608C14.464 26.2267 15.7013 26.536 16.96 26.536C18.24 26.536 19.3173 26.3333 20.192 25.928C21.0667 25.5227 21.7067 24.9787 22.112 24.296C22.5173 23.6133 22.72 22.8987 22.72 22.152C22.72 21.4053 22.4533 20.648 21.92 19.88C21.3867 19.0907 20.5973 18.408 19.552 17.832L14.336 14.76C11.6907 13.2027 10.368 11.1973 10.368 8.744C10.368 6.54667 11.136 4.85067 12.672 3.656C13.952 2.65333 15.6907 2.152 17.888 2.152C19.296 2.152 21.088 2.25867 23.264 2.472H25.76L25.088 7.688H24.768C24.768 6.51467 24.3093 5.56533 23.392 4.84C22.4747 4.11467 21.3013 3.752 19.872 3.752C18.4427 3.752 17.344 3.99733 16.576 4.488C15.808 4.97867 15.392 5.62933 15.328 6.44C15.264 6.99467 15.4133 7.464 15.776 7.848C16.096 8.18933 16.416 8.456 16.736 8.648C17.056 8.81867 17.344 8.97867 17.6 9.128C17.856 9.27733 18.0373 9.37333 18.144 9.416L24.128 12.84C25.472 13.5867 26.5173 14.5147 27.264 15.624C28.1173 16.8827 28.544 18.1947 28.544 19.56ZM30.0448 24.68C30.5994 24.68 31.0688 24.488 31.4528 24.104C31.8581 23.6987 32.0714 23.2187 32.0928 22.664V4.936C32.0714 4.25333 31.7834 3.70933 31.2288 3.304C30.8874 3.048 30.4928 2.92 30.0448 2.92H29.6288V2.6H40.2848C41.2021 2.6 42.0128 2.52533 42.7168 2.376C43.4421 2.22667 43.9008 2.10933 44.0928 2.024V8.616H43.7728V8.36C43.7728 7.10133 43.4208 6.10933 42.7168 5.384C42.0128 4.65867 41.0314 4.27467 39.7728 4.232H38.6528V13.16H43.1008C44.1248 13.1387 44.9568 12.808 45.5968 12.168C46.2368 11.5067 46.5568 10.664 46.5568 9.64V9.512H46.8768V18.408H46.5568V18.248C46.5568 17.2453 46.2368 16.424 45.5968 15.784C44.9568 15.1227 44.1354 14.7813 43.1328 14.76H38.6528V23.368H44.5088C46.0661 23.368 47.4421 22.856 48.6368 21.832C49.8314 20.808 50.6741 19.3893 51.1648 17.576H51.4848L50.2688 25H29.6288V24.68H30.0448ZM82.106 30.472C80.4633 31.432 78.7887 31.912 77.082 31.912C75.3753 31.912 73.754 31.592 72.218 30.952C70.7033 30.312 69.21 29.192 67.738 27.592C66.2873 26.0133 65.0927 24.0827 64.154 21.8L63.29 19.688H56.442L55.162 22.664C55.0553 22.9413 55.002 23.1653 55.002 23.336C55.002 23.5067 55.034 23.6987 55.098 23.912C55.1833 24.104 55.3433 24.2853 55.578 24.456C55.834 24.6053 56.1007 24.68 56.378 24.68H56.666V25H49.53V24.68H49.818C50.3087 24.68 50.7887 24.5413 51.258 24.264C51.7487 23.9653 52.154 23.528 52.474 22.952L59.002 8.616C58.362 6.84533 57.8287 5.66133 57.402 5.064C56.9967 4.44533 56.6553 3.976 56.378 3.656C55.866 3.05866 55.226 2.62133 54.458 2.344C54.1593 2.23733 53.8073 2.184 53.402 2.184C52.9967 2.184 52.538 2.28 52.026 2.472L51.962 2.152C53.6687 1.14933 55.3007 0.647999 56.858 0.647999C59.162 0.647999 61.242 1.77867 63.098 4.04C64.0367 5.21333 64.8793 6.632 65.626 8.296L70.746 20.04C71.6847 22.1947 72.378 23.6453 72.826 24.392C73.274 25.1173 73.6687 25.736 74.01 26.248C74.3727 26.7813 74.7247 27.24 75.066 27.624C75.4073 28.008 75.7807 28.3813 76.186 28.744C76.89 29.384 77.7753 29.864 78.842 30.184C79.29 30.3333 79.7807 30.408 80.314 30.408C80.8687 30.408 81.4447 30.3227 82.042 30.152L82.106 30.472ZM57.146 18.088H62.65L60.634 13.128C60.4633 12.744 60.2607 12.2 60.026 11.496L57.146 18.088Z" fill="black"/>
</svg>
